<svg width="126" height="60" viewBox="0 0 126 60" fill="none" xmlns="http://www.w3.org/2000/svg">
<path d="M44.3333 1.17188H23.8V17.8125H38.5V19.6875H23.8V27.1875H44.3333V10.7812H29.6333V8.67188H44.3333V1.17188Z" fill="#D22700"/>
<path d="M44.3333 30.9375H23.8V47.3438H38.5V49.2188H23.8V56.7188H44.3333V40.3125H29.6333V38.2031H44.3333V30.9375Z" fill="#D22700"/>
<path d="M20.5333 30.9375H0V47.3438H14.7V49.2188H0V56.7188H20.5333V40.3125H5.83333V38.2031H20.5333V30.9375Z" fill="#D22700"/>
<path d="M20.7667 1.17188H0.233337V27.1875H20.7667V19.9219H5.83334V17.8125H20.7667V10.5469H5.83334V8.67188H20.7667V1.17188Z" fill="#D22700"/>
<path d="M49.3612 12.1875V10.9284H53.7563V12.1875H49.3612ZM49.5992 7.23094V5.94H52.8043V7.23094H49.5992ZM48.552 0.951562H49.9959V12.1875H48.552V0.951562ZM49.5199 0.951562H53.5976V2.21062H49.5199V0.951562ZM60.2415 12.1875L55.7671 0.951562H57.1793L61.6537 12.1875H60.2415ZM55.4974 12.1875V0.951562H56.9413V12.1875H55.4974ZM60.6223 12.1875V0.951562H62.0662V12.1875H60.6223ZM66.9877 7.47V6.21094H70.2245V7.47H66.9877ZM68.7806 9.46219V6.25875H70.2245V9.46219H68.7806ZM63.973 9.46219V3.67687H65.4169V9.46219H63.973ZM63.973 3.67687C63.973 3.0925 64.1051 2.57719 64.3697 2.13094C64.6343 1.67406 65.0043 1.32344 65.4803 1.07906C65.9563 0.824062 66.5009 0.696562 67.1146 0.696562V1.95562C66.5859 1.95562 66.1677 2.10437 65.8611 2.40187C65.5648 2.69938 65.4169 3.12437 65.4169 3.67687H63.973ZM63.973 9.44625H65.4169C65.4169 9.99876 65.5648 10.4291 65.8611 10.7372C66.1677 11.0347 66.5859 11.1834 67.1146 11.1834V12.4425C66.5009 12.4425 65.9563 12.315 65.4803 12.06C65.0043 11.805 64.6343 11.4544 64.3697 11.0081C64.1051 10.5619 63.973 10.0412 63.973 9.44625ZM69.0027 4.09125C68.9393 3.42187 68.7381 2.90125 68.3998 2.52937C68.0717 2.14687 67.6382 1.95562 67.0987 1.95562V0.696562C67.998 0.696562 68.7279 0.97281 69.2883 1.52531C69.8595 2.07781 70.2035 2.84281 70.3197 3.82031L69.0027 4.09125ZM70.2245 9.44625C70.2245 10.0412 70.0924 10.5619 69.8278 11.0081C69.5632 11.4544 69.1931 11.805 68.7171 12.06C68.2519 12.315 67.7124 12.4425 67.0987 12.4425V11.1834C67.6275 11.1834 68.04 11.0347 68.3363 10.7372C68.6327 10.4291 68.7806 9.99876 68.7806 9.44625H70.2245ZM72.4598 12.1875V0.951562H73.9037V12.1875H72.4598ZM80.9849 12.1875L76.5105 0.951562H77.9226L82.397 12.1875H80.9849ZM76.2407 12.1875V0.951562H77.6846V12.1875H76.2407ZM81.3657 12.1875V0.951562H82.8095V12.1875H81.3657ZM85.7925 12.1875V10.9284H90.1875V12.1875H85.7925ZM86.0305 7.23094V5.94H89.2355V7.23094H86.0305ZM84.9833 0.951562H86.4271V12.1875H84.9833V0.951562ZM85.9511 0.951562H90.0289V2.21062H85.9511V0.951562ZM92.7379 12.1875V10.9284H97.1329V12.1875H92.7379ZM92.9759 7.23094V5.94H96.1809V7.23094H92.9759ZM91.9287 0.951562H93.3725V12.1875H91.9287V0.951562ZM92.8965 0.951562H96.9743V2.21062H92.8965V0.951562ZM103.142 12.1875L101.111 6.705H102.587L104.618 12.1875H103.142ZM99.8102 7.42219V6.17906H101.429V7.42219H99.8102ZM99.8102 2.21062V0.951562H101.429V2.21062H99.8102ZM103.11 4.45781V3.91594H104.554V4.45781H103.11ZM104.554 3.93187H103.11C103.11 3.37937 102.957 2.95437 102.65 2.65687C102.354 2.35937 101.941 2.21062 101.413 2.21062V0.951562C102.037 0.951562 102.582 1.07906 103.047 1.33406C103.523 1.57844 103.893 1.92906 104.158 2.38594C104.422 2.83219 104.554 3.3475 104.554 3.93187ZM104.554 4.44187C104.554 5.02626 104.422 5.54686 104.158 6.00375C103.893 6.45 103.523 6.80062 103.047 7.05562C102.582 7.29998 102.037 7.42219 101.413 7.42219V6.17906C101.941 6.17906 102.354 6.02498 102.65 5.71687C102.957 5.40876 103.11 4.98375 103.11 4.44187H104.554ZM98.8741 12.1875V0.951562H100.318V12.1875H98.8741ZM106.52 12.1875V0.951562H107.964V12.1875H106.52ZM115.045 12.1875L110.571 0.951562H111.983L116.458 12.1875H115.045ZM110.301 12.1875V0.951562H111.745V12.1875H110.301ZM115.426 12.1875V0.951562H116.87V12.1875H115.426ZM121.792 7.47V6.21094H125.028V7.47H121.792ZM123.585 9.46219V6.25875H125.028V9.46219H123.585ZM118.777 9.46219V3.67687H120.221V9.46219H118.777ZM118.777 3.67687C118.777 3.0925 118.909 2.57719 119.174 2.13094C119.438 1.67406 119.808 1.32344 120.284 1.07906C120.76 0.824062 121.305 0.696562 121.919 0.696562V1.95562C121.39 1.95562 120.972 2.10437 120.665 2.40187C120.369 2.69938 120.221 3.12437 120.221 3.67687H118.777ZM118.777 9.44625H120.221C120.221 9.99876 120.369 10.4291 120.665 10.7372C120.972 11.0347 121.39 11.1834 121.919 11.1834V12.4425C121.305 12.4425 120.76 12.315 120.284 12.06C119.808 11.805 119.438 11.4544 119.174 11.0081C118.909 10.5619 118.777 10.0412 118.777 9.44625ZM123.807 4.09125C123.743 3.42187 123.542 2.90125 123.204 2.52937C122.876 2.14687 122.442 1.95562 121.903 1.95562V0.696562C122.802 0.696562 123.532 0.97281 124.092 1.52531C124.663 2.07781 125.007 2.84281 125.124 3.82031L123.807 4.09125ZM125.028 9.44625C125.028 10.0412 124.896 10.5619 124.632 11.0081C124.367 11.4544 123.997 11.805 123.521 12.06C123.056 12.315 122.516 12.4425 121.903 12.4425V11.1834C122.431 11.1834 122.844 11.0347 123.14 10.7372C123.437 10.4291 123.585 9.99876 123.585 9.44625H125.028ZM53.074 24.6694C53.074 24.2762 52.9629 23.931 52.7408 23.6334C52.5187 23.3253 52.2331 23.0385 51.884 22.7728C51.5349 22.5072 51.1593 22.2362 50.7575 21.96C50.3659 21.6838 49.9959 21.381 49.6468 21.0516C49.2977 20.7222 49.0121 20.3503 48.79 19.9359C48.5679 19.5109 48.4568 19.0222 48.4568 18.4697H49.9007C49.9007 18.8522 50.0117 19.1975 50.2339 19.5056C50.456 19.8031 50.7416 20.09 51.0907 20.3663C51.4397 20.6319 51.8098 20.9028 52.2013 21.1791C52.6031 21.4553 52.9788 21.7581 53.3279 22.0875C53.6769 22.4062 53.9625 22.7781 54.1847 23.2031C54.4068 23.6175 54.5179 24.1063 54.5179 24.6694H53.074ZM48.4568 18.5016C48.4568 17.9172 48.5889 17.4178 48.8535 17.0034C49.1181 16.5891 49.4881 16.2703 49.9641 16.0472C50.4401 15.8241 50.9847 15.7125 51.5984 15.7125V16.9556C51.0697 16.9556 50.6515 17.0938 50.3449 17.37C50.0486 17.6462 49.9007 18.0234 49.9007 18.5016H48.4568ZM54.5179 24.6375C54.5179 25.2113 54.3858 25.7106 54.1212 26.1356C53.8566 26.55 53.4865 26.8687 53.0105 27.0919C52.5453 27.315 52.0002 27.4266 51.3763 27.4266V26.1675C51.905 26.1675 52.3175 26.0347 52.6139 25.7691C52.9205 25.4928 53.074 25.1156 53.074 24.6375H54.5179ZM53.0899 18.3581C53.0371 17.88 52.8677 17.5294 52.5821 17.3062C52.3073 17.0725 51.9792 16.9556 51.5984 16.9556V15.7125C52.0954 15.7125 52.5453 15.8134 52.9471 16.0153C53.3489 16.2172 53.6821 16.4934 53.9467 16.8441C54.2113 17.1947 54.3751 17.6091 54.4385 18.0872L53.0899 18.3581ZM49.4723 24.0319C49.5357 24.7013 49.7313 25.2272 50.0593 25.6097C50.3977 25.9815 50.8368 26.1675 51.3763 26.1675V27.4266C50.477 27.4266 49.742 27.1503 49.1708 26.5978C48.6103 26.0453 48.2715 25.2803 48.1553 24.3028L49.4723 24.0319ZM57.2395 17.2106V15.9516H58.8579V17.2106H57.2395ZM57.2395 22.8684V21.6094H58.8579V22.8684H57.2395ZM60.5397 19.8881V18.9319H61.9836V19.8881H60.5397ZM61.9836 18.9319H60.5397C60.5397 18.3794 60.3862 17.9544 60.0796 17.6569C59.7833 17.3594 59.3707 17.2106 58.842 17.2106V15.9516C59.4659 15.9516 60.0105 16.0791 60.4763 16.3341C60.9523 16.5784 61.3223 16.929 61.5869 17.3859C61.8511 17.8322 61.9836 18.3475 61.9836 18.9319ZM61.9836 19.8722C61.9836 20.4672 61.8511 20.9878 61.5869 21.4341C61.3223 21.8803 60.9523 22.2309 60.4763 22.4859C60.0105 22.7409 59.4659 22.8684 58.842 22.8684V21.6094C59.3707 21.6094 59.7833 21.4553 60.0796 21.1472C60.3862 20.8391 60.5397 20.4141 60.5397 19.8722H61.9836ZM56.3033 27.1875V15.9516H57.7472V27.1875H56.3033ZM64.3832 27.1875V25.9284H68.7783V27.1875H64.3832ZM64.6212 22.2309V20.94H67.8263V22.2309H64.6212ZM63.574 15.9516H65.0179V27.1875H63.574V15.9516ZM64.5419 15.9516H68.6196V17.2106H64.5419V15.9516ZM70.3607 24.4622V18.6769H71.8046V24.4622H70.3607ZM70.3607 18.6769C70.3607 18.0925 70.4928 17.5772 70.7574 17.1309C71.0215 16.674 71.3921 16.3234 71.8681 16.0791C72.3441 15.8241 72.8887 15.6966 73.5023 15.6966V16.9556C72.9731 16.9556 72.5555 17.1044 72.2489 17.4019C71.9525 17.6994 71.8046 18.1244 71.8046 18.6769H70.3607ZM70.3607 24.4462H71.8046C71.8046 24.9988 71.9525 25.4291 72.2489 25.7372C72.5555 26.0347 72.9731 26.1834 73.5023 26.1834V27.4425C72.8887 27.4425 72.3441 27.315 71.8681 27.06C71.3921 26.805 71.0215 26.4544 70.7574 26.0081C70.4928 25.5619 70.3607 25.0412 70.3607 24.4462ZM75.3905 19.0912C75.327 18.4219 75.1259 17.9012 74.7875 17.5294C74.4595 17.1469 74.0259 16.9556 73.4865 16.9556V15.6966C74.3853 15.6966 75.1151 15.9728 75.6761 16.5253C76.2473 17.0778 76.5907 17.8428 76.7074 18.8203L75.3905 19.0912ZM75.3905 24.0478L76.7074 24.3028C76.5907 25.2909 76.2473 26.0612 75.6761 26.6138C75.1151 27.1663 74.3853 27.4425 73.4865 27.4425V26.1834C74.0259 26.1834 74.4595 25.9975 74.7875 25.6256C75.1259 25.2431 75.327 24.7172 75.3905 24.0478ZM78.4602 27.1875V15.9516H79.9041V27.1875H78.4602ZM83.2589 24.9403V23.6972H87.3208V24.9403H83.2589ZM85.8135 15.9516L83.0844 27.1875H81.6564L84.3855 15.9516H85.8135ZM85.8452 15.9516L88.5743 27.1875H87.1621L84.4172 15.9516H85.8452ZM91.0527 27.1875V25.9284H95.1305V27.1875H91.0527ZM90.0849 27.1875V15.9516H91.5287V27.1875H90.0849ZM96.7241 27.1875V15.9516H98.168V27.1875H96.7241ZM104.918 24.6694C104.918 24.2762 104.807 23.931 104.585 23.6334C104.363 23.3253 104.077 23.0385 103.728 22.7728C103.379 22.5072 103.004 22.2362 102.602 21.96C102.21 21.6838 101.84 21.381 101.491 21.0516C101.142 20.7222 100.856 20.3503 100.634 19.9359C100.412 19.5109 100.301 19.0222 100.301 18.4697H101.745C101.745 18.8522 101.856 19.1975 102.078 19.5056C102.3 19.8031 102.586 20.09 102.935 20.3663C103.284 20.6319 103.654 20.9028 104.046 21.1791C104.447 21.4553 104.823 21.7581 105.172 22.0875C105.521 22.4062 105.807 22.7781 106.029 23.2031C106.251 23.6175 106.362 24.1063 106.362 24.6694H104.918ZM100.301 18.5016C100.301 17.9172 100.433 17.4178 100.698 17.0034C100.962 16.5891 101.332 16.2703 101.808 16.0472C102.284 15.8241 102.829 15.7125 103.443 15.7125V16.9556C102.914 16.9556 102.496 17.0938 102.189 17.37C101.893 17.6462 101.745 18.0234 101.745 18.5016H100.301ZM106.362 24.6375C106.362 25.2113 106.23 25.7106 105.966 26.1356C105.701 26.55 105.331 26.8687 104.855 27.0919C104.39 27.315 103.845 27.4266 103.221 27.4266V26.1675C103.749 26.1675 104.162 26.0347 104.458 25.7691C104.765 25.4928 104.918 25.1156 104.918 24.6375H106.362ZM104.934 18.3581C104.881 17.88 104.712 17.5294 104.426 17.3062C104.152 17.0725 103.824 16.9556 103.443 16.9556V15.7125C103.94 15.7125 104.39 15.8134 104.791 16.0153C105.193 16.2172 105.526 16.4934 105.791 16.8441C106.056 17.1947 106.219 17.6091 106.283 18.0872L104.934 18.3581ZM101.317 24.0319C101.38 24.7013 101.576 25.2272 101.904 25.6097C102.242 25.9815 102.681 26.1675 103.221 26.1675V27.4266C102.321 27.4266 101.586 27.1503 101.015 26.5978C100.455 26.0453 100.116 25.2803 99.9997 24.3028L101.317 24.0319ZM108.957 27.1875V25.9284H113.352V27.1875H108.957ZM109.195 22.2309V20.94H112.4V22.2309H109.195ZM108.148 15.9516H109.592V27.1875H108.148V15.9516ZM109.116 15.9516H113.193V17.2106H109.116V15.9516ZM119.361 24.2072V18.9319H120.805V24.2072H119.361ZM116.108 27.1875V25.9284H117.679V27.1875H116.108ZM116.108 17.2106V15.9516H117.679V17.2106H116.108ZM116.108 17.2106V15.9516H117.679V17.2106H116.108ZM120.805 18.9319H119.361C119.361 18.3794 119.213 17.9544 118.916 17.6569C118.621 17.3594 118.208 17.2106 117.679 17.2106V15.9516C118.293 15.9516 118.832 16.0791 119.297 16.3341C119.773 16.5784 120.144 16.929 120.408 17.3859C120.673 17.8322 120.805 18.3475 120.805 18.9319ZM120.805 24.1912C120.805 24.7862 120.673 25.3069 120.408 25.7531C120.144 26.1994 119.773 26.55 119.297 26.805C118.832 27.06 118.293 27.1875 117.679 27.1875V25.9284C118.208 25.9284 118.621 25.7797 118.916 25.4822C119.213 25.1741 119.361 24.7438 119.361 24.1912H120.805ZM115.093 27.1875V15.9516H116.536V27.1875H115.093ZM53.074 39.6694C53.074 39.2762 52.9629 38.931 52.7408 38.6334C52.5187 38.3253 52.2331 38.0385 51.884 37.7728C51.5349 37.5072 51.1593 37.2362 50.7575 36.96C50.3659 36.6838 49.9959 36.381 49.6468 36.0516C49.2977 35.7222 49.0121 35.3503 48.79 34.9359C48.5679 34.5109 48.4568 34.0222 48.4568 33.4697H49.9007C49.9007 33.8522 50.0117 34.1975 50.2339 34.5056C50.456 34.8031 50.7416 35.09 51.0907 35.3662C51.4397 35.6319 51.8098 35.9028 52.2013 36.1791C52.6031 36.4553 52.9788 36.7581 53.3279 37.0875C53.6769 37.4063 53.9625 37.7781 54.1847 38.2031C54.4068 38.6175 54.5179 39.1063 54.5179 39.6694H53.074ZM48.4568 33.5016C48.4568 32.9172 48.5889 32.4178 48.8535 32.0034C49.1181 31.5891 49.4881 31.2703 49.9641 31.0472C50.4401 30.8241 50.9847 30.7125 51.5984 30.7125V31.9556C51.0697 31.9556 50.6515 32.0938 50.3449 32.37C50.0486 32.6462 49.9007 33.0234 49.9007 33.5016H48.4568ZM54.5179 39.6375C54.5179 40.2112 54.3858 40.7106 54.1212 41.1356C53.8566 41.55 53.4865 41.8687 53.0105 42.0919C52.5453 42.315 52.0002 42.4266 51.3763 42.4266V41.1675C51.905 41.1675 52.3175 41.0347 52.6139 40.7691C52.9205 40.4928 53.074 40.1156 53.074 39.6375H54.5179ZM53.0899 33.3581C53.0371 32.88 52.8677 32.5294 52.5821 32.3062C52.3073 32.0725 51.9792 31.9556 51.5984 31.9556V30.7125C52.0954 30.7125 52.5453 30.8134 52.9471 31.0153C53.3489 31.2172 53.6821 31.4934 53.9467 31.8441C54.2113 32.1947 54.3751 32.6091 54.4385 33.0872L53.0899 33.3581ZM49.4723 39.0319C49.5357 39.7013 49.7313 40.2272 50.0593 40.6097C50.3977 40.9815 50.8368 41.1675 51.3763 41.1675V42.4266C50.477 42.4266 49.742 42.1503 49.1708 41.5978C48.6103 41.0453 48.2715 40.2803 48.1553 39.3028L49.4723 39.0319ZM60.9863 39.4622V30.9516H62.4302V39.4622H60.9863ZM56.1946 39.4622V30.9516H57.6385V39.4622H56.1946ZM62.4302 39.4462C62.4302 40.0306 62.2981 40.5512 62.0335 41.0081C61.7689 41.4544 61.3989 41.805 60.9229 42.06C60.4576 42.3044 59.9181 42.4266 59.3045 42.4266V41.1675C59.8332 41.1675 60.2457 41.0188 60.5421 40.7213C60.8384 40.4131 60.9863 39.9881 60.9863 39.4462H62.4302ZM56.1946 39.4462H57.6385C57.6385 39.9881 57.7864 40.4131 58.0827 40.7213C58.3893 41.0188 58.8075 41.1675 59.3362 41.1675V42.4266C58.7225 42.4266 58.1779 42.3044 57.7019 42.06C57.2259 41.805 56.8559 41.4544 56.5913 41.0081C56.3267 40.5512 56.1946 40.0306 56.1946 39.4462ZM65.4243 32.2106V30.9516H67.0427V32.2106H65.4243ZM65.4243 37.8684V36.6094H67.0427V37.8684H65.4243ZM68.7246 34.8881V33.9319H70.1685V34.8881H68.7246ZM70.1685 33.9319H68.7246C68.7246 33.3794 68.5711 32.9544 68.2645 32.6569C67.9681 32.3594 67.5556 32.2106 67.0269 32.2106V30.9516C67.6508 30.9516 68.1954 31.0791 68.6611 31.3341C69.1371 31.5784 69.5072 31.929 69.7718 32.3859C70.0359 32.8322 70.1685 33.3475 70.1685 33.9319ZM70.1685 34.8722C70.1685 35.4672 70.0359 35.9878 69.7718 36.4341C69.5072 36.8803 69.1371 37.2309 68.6611 37.4859C68.1954 37.7409 67.6508 37.8684 67.0269 37.8684V36.6094C67.5556 36.6094 67.9681 36.4553 68.2645 36.1472C68.5711 35.8391 68.7246 35.4141 68.7246 34.8722H70.1685ZM64.4882 42.1875V30.9516H65.9321V42.1875H64.4882ZM72.695 32.2106V30.9516H74.3134V32.2106H72.695ZM72.695 37.8684V36.6094H74.3134V37.8684H72.695ZM75.9953 34.8881V33.9319H77.4391V34.8881H75.9953ZM77.4391 33.9319H75.9953C75.9953 33.3794 75.8417 32.9544 75.5351 32.6569C75.2388 32.3594 74.8263 32.2106 74.2975 32.2106V30.9516C74.9215 30.9516 75.4665 31.0791 75.9318 31.3341C76.4078 31.5784 76.7779 31.929 77.0425 32.3859C77.3071 32.8322 77.4391 33.3475 77.4391 33.9319ZM77.4391 34.8722C77.4391 35.4672 77.3071 35.9878 77.0425 36.4341C76.7779 36.8803 76.4078 37.2309 75.9318 37.4859C75.4665 37.7409 74.9215 37.8684 74.2975 37.8684V36.6094C74.8263 36.6094 75.2388 36.4553 75.5351 36.1472C75.8417 35.8391 75.9953 35.4141 75.9953 34.8722H77.4391ZM71.7589 42.1875V30.9516H73.2027V42.1875H71.7589ZM83.7737 39.4462V33.6769H85.2175V39.4462H83.7737ZM78.9502 39.4462V33.6769H80.3941V39.4462H78.9502ZM85.2175 33.6928H83.7737C83.7737 33.1403 83.6206 32.7153 83.3135 32.4178C83.0177 32.1203 82.6051 31.9716 82.0759 31.9716V30.7125C82.7003 30.7125 83.2449 30.84 83.7102 31.095C84.1862 31.3394 84.5567 31.69 84.8209 32.1469C85.0855 32.5931 85.2175 33.1084 85.2175 33.6928ZM78.9502 33.6928C78.9502 33.1084 79.0827 32.5931 79.3469 32.1469C79.6115 31.69 79.9815 31.3394 80.4575 31.095C80.9335 30.84 81.4786 30.7125 82.0918 30.7125V31.9716C81.5631 31.9716 81.1454 32.1203 80.8383 32.4178C80.5425 32.7153 80.3941 33.1403 80.3941 33.6928H78.9502ZM85.2175 39.4303C85.2175 40.0253 85.0855 40.5459 84.8209 40.9922C84.5567 41.4384 84.1862 41.7891 83.7102 42.0441C83.2449 42.2991 82.7003 42.4266 82.0759 42.4266V41.1675C82.6051 41.1675 83.0177 41.0188 83.3135 40.7213C83.6206 40.4131 83.7737 39.9828 83.7737 39.4303H85.2175ZM78.9502 39.4303H80.3941C80.3941 39.9828 80.5425 40.4131 80.8383 40.7213C81.1454 41.0188 81.5631 41.1675 82.0918 41.1675V42.4266C81.4786 42.4266 80.9335 42.2991 80.4575 42.0441C79.9815 41.7891 79.6115 41.4384 79.3469 40.9922C79.0827 40.5459 78.9502 40.0253 78.9502 39.4303ZM91.4671 42.1875L89.4362 36.705H90.9118L92.9427 42.1875H91.4671ZM88.1351 37.4222V36.1791H89.7535V37.4222H88.1351ZM88.1351 32.2106V30.9516H89.7535V32.2106H88.1351ZM91.4354 34.4578V33.9159H92.8793V34.4578H91.4354ZM92.8793 33.9319H91.4354C91.4354 33.3794 91.2823 32.9544 90.9753 32.6569C90.6794 32.3594 90.2669 32.2106 89.7377 32.2106V30.9516C90.3621 30.9516 90.9067 31.0791 91.3719 31.3341C91.8479 31.5784 92.2185 31.929 92.4826 32.3859C92.7472 32.8322 92.8793 33.3475 92.8793 33.9319ZM92.8793 34.4419C92.8793 35.0263 92.7472 35.5469 92.4826 36.0037C92.2185 36.45 91.8479 36.8006 91.3719 37.0556C90.9067 37.3 90.3621 37.4222 89.7377 37.4222V36.1791C90.2669 36.1791 90.6794 36.025 90.9753 35.7169C91.2823 35.4088 91.4354 34.9837 91.4354 34.4419H92.8793ZM87.199 42.1875V30.9516H88.6429V42.1875H87.199ZM93.5718 32.2106V30.9516H100.156V32.2106H93.5718ZM96.1422 42.1875V30.9516H97.5861V42.1875H96.1422ZM53.074 54.6694C53.074 54.2761 52.9629 53.9311 52.7408 53.6334C52.5187 53.3255 52.2331 53.0386 51.884 52.7728C51.5349 52.507 51.1593 52.2361 50.7575 51.96C50.3659 51.6839 49.9959 51.3811 49.6468 51.0516C49.2977 50.722 49.0121 50.3503 48.79 49.9359C48.5679 49.5108 48.4568 49.0223 48.4568 48.4697H49.9007C49.9007 48.8522 50.0117 49.1977 50.2339 49.5056C50.456 49.8033 50.7416 50.0902 51.0907 50.3662C51.4397 50.632 51.8098 50.903 52.2013 51.1791C52.6031 51.4552 52.9788 51.758 53.3279 52.0875C53.6769 52.4063 53.9625 52.778 54.1847 53.2031C54.4068 53.6175 54.5179 54.1064 54.5179 54.6694H53.074ZM48.4568 48.5016C48.4568 47.917 48.5889 47.4178 48.8535 47.0034C49.1181 46.5891 49.4881 46.2703 49.9641 46.0472C50.4401 45.8241 50.9847 45.7125 51.5984 45.7125V46.9556C51.0697 46.9556 50.6515 47.0939 50.3449 47.37C50.0486 47.6461 49.9007 48.0234 49.9007 48.5016H48.4568ZM54.5179 54.6375C54.5179 55.2112 54.3858 55.7105 54.1212 56.1356C53.8566 56.55 53.4865 56.8687 53.0105 57.0919C52.5453 57.315 52.0002 57.4266 51.3763 57.4266V56.1675C51.905 56.1675 52.3175 56.0348 52.6139 55.7691C52.9205 55.493 53.074 55.1156 53.074 54.6375H54.5179ZM53.0899 48.3581C53.0371 47.88 52.8677 47.5294 52.5821 47.3062C52.3073 47.0723 51.9792 46.9556 51.5984 46.9556V45.7125C52.0954 45.7125 52.5453 45.8134 52.9471 46.0153C53.3489 46.2172 53.6821 46.4934 53.9467 46.8441C54.2113 47.1947 54.3751 47.6091 54.4385 48.0872L53.0899 48.3581ZM49.4723 54.0319C49.5357 54.7013 49.7313 55.2272 50.0593 55.6097C50.3977 55.9814 50.8368 56.1675 51.3763 56.1675V57.4266C50.477 57.4266 49.742 57.1505 49.1708 56.5978C48.6103 56.0452 48.2715 55.2802 48.1553 54.3028L49.4723 54.0319ZM57.1125 57.1875V55.9284H61.5076V57.1875H57.1125ZM57.3505 52.2309V50.94H60.5556V52.2309H57.3505ZM56.3033 45.9516H57.7472V57.1875H56.3033V45.9516ZM57.2712 45.9516H61.3489V47.2106H57.2712V45.9516ZM67.5169 57.1875L65.4859 51.705H66.9615L68.9925 57.1875H67.5169ZM64.1849 52.4222V51.1791H65.8033V52.4222H64.1849ZM64.1849 47.2106V45.9516H65.8033V47.2106H64.1849ZM67.4851 49.4578V48.9159H68.929V49.4578H67.4851ZM68.929 48.9319H67.4851C67.4851 48.3792 67.3316 47.9545 67.025 47.6569C66.7287 47.3592 66.3161 47.2106 65.7874 47.2106V45.9516C66.4113 45.9516 66.9559 46.0791 67.4217 46.3341C67.8977 46.5784 68.2677 46.9289 68.5323 47.3859C68.7965 47.8322 68.929 48.3473 68.929 48.9319ZM68.929 49.4419C68.929 50.0264 68.7965 50.5467 68.5323 51.0037C68.2677 51.45 67.8977 51.8006 67.4217 52.0556C66.9559 52.2998 66.4113 52.4222 65.7874 52.4222V51.1791C66.3161 51.1791 66.7287 51.0248 67.025 50.7169C67.3316 50.4089 67.4851 49.9837 67.4851 49.4419H68.929ZM63.2487 57.1875V45.9516H64.6926V57.1875H63.2487ZM72.8196 57.1875L75.5645 45.9516H76.9767L74.2476 57.1875H72.8196ZM72.7879 57.1875L70.0588 45.9516H71.4868L74.2159 57.1875H72.7879ZM78.491 57.1875V45.9516H79.9349V57.1875H78.491ZM82.0045 54.4622V48.6769H83.4484V54.4622H82.0045ZM82.0045 48.6769C82.0045 48.0923 82.1371 47.5772 82.4012 47.1309C82.6658 46.674 83.0359 46.3234 83.5119 46.0791C83.9879 45.8241 84.5329 45.6966 85.1461 45.6966V46.9556C84.6174 46.9556 84.1997 47.1042 83.8927 47.4019C83.5968 47.6995 83.4484 48.1242 83.4484 48.6769H82.0045ZM82.0045 54.4462H83.4484C83.4484 54.9989 83.5968 55.4292 83.8927 55.7372C84.1997 56.0348 84.6174 56.1834 85.1461 56.1834V57.4425C84.5329 57.4425 83.9879 57.315 83.5119 57.06C83.0359 56.805 82.6658 56.4544 82.4012 56.0081C82.1371 55.5619 82.0045 55.0411 82.0045 54.4462ZM87.0343 49.0912C86.9708 48.4219 86.7701 47.9011 86.4313 47.5294C86.1037 47.1469 85.6697 46.9556 85.1303 46.9556V45.6966C86.0295 45.6966 86.7594 45.9728 87.3199 46.5253C87.8911 47.078 88.235 47.843 88.3512 48.8203L87.0343 49.0912ZM87.0343 54.0478L88.3512 54.3028C88.235 55.2909 87.8911 56.0611 87.3199 56.6137C86.7594 57.1664 86.0295 57.4425 85.1303 57.4425V56.1834C85.6697 56.1834 86.1037 55.9973 86.4313 55.6256C86.7701 55.2431 86.9708 54.7172 87.0343 54.0478ZM90.7545 57.1875V55.9284H95.1496V57.1875H90.7545ZM90.9925 52.2309V50.94H94.1976V52.2309H90.9925ZM89.9453 45.9516H91.3892V57.1875H89.9453V45.9516ZM90.9132 45.9516H94.9909V47.2106H90.9132V45.9516ZM101.413 54.6694C101.413 54.2761 101.302 53.9311 101.08 53.6334C100.857 53.3255 100.572 53.0386 100.223 52.7728C99.8737 52.507 99.498 52.2361 99.0962 51.96C98.7047 51.6839 98.3346 51.3811 97.9855 51.0516C97.6365 50.722 97.3509 50.3503 97.1287 49.9359C96.9066 49.5108 96.7955 49.0223 96.7955 48.4697H98.2394C98.2394 48.8522 98.3505 49.1977 98.5726 49.5056C98.7947 49.8033 99.0803 50.0902 99.4294 50.3662C99.7785 50.632 100.149 50.903 100.54 51.1791C100.942 51.4552 101.318 51.758 101.667 52.0875C102.016 52.4063 102.301 52.778 102.523 53.2031C102.746 53.6175 102.857 54.1064 102.857 54.6694H101.413ZM96.7955 48.5016C96.7955 47.917 96.9276 47.4178 97.1922 47.0034C97.4568 46.5891 97.8269 46.2703 98.3029 46.0472C98.7789 45.8241 99.3235 45.7125 99.9371 45.7125V46.9556C99.4084 46.9556 98.9903 47.0939 98.6837 47.37C98.3873 47.6461 98.2394 48.0234 98.2394 48.5016H96.7955ZM102.857 54.6375C102.857 55.2112 102.725 55.7105 102.46 56.1356C102.195 56.55 101.825 56.8687 101.349 57.0919C100.884 57.315 100.339 57.4266 99.715 57.4266V56.1675C100.244 56.1675 100.656 56.0348 100.953 55.7691C101.259 55.493 101.413 55.1156 101.413 54.6375H102.857ZM101.429 48.3581C101.376 47.88 101.206 47.5294 100.921 47.3062C100.646 47.0723 100.318 46.9556 99.9371 46.9556V45.7125C100.434 45.7125 100.884 45.8134 101.286 46.0153C101.688 46.2172 102.021 46.4934 102.285 46.8441C102.55 47.1947 102.714 47.6091 102.777 48.0872L101.429 48.3581ZM97.811 54.0319C97.8745 54.7013 98.07 55.2272 98.3981 55.6097C98.7364 55.9814 99.1755 56.1675 99.715 56.1675V57.4266C98.8157 57.4266 98.0807 57.1505 97.5095 56.5978C96.9491 56.0452 96.6103 55.2802 96.4941 54.3028L97.811 54.0319Z" fill="white"/>
</svg>
